<svg width="350" height="430" viewBox="0 0 350 430" fill="none" xmlns="http://www.w3.org/2000/svg">
<rect y="398" width="93" height="32" rx="12" fill="#60D773"/>
<path d="M39.456 420H33.36V408.928H34.592V418.896H39.456V420ZM40.3781 415.984C40.3781 414.523 40.6395 413.467 41.1621 412.816C41.6848 412.165 42.5648 411.84 43.8021 411.84C45.0501 411.84 45.9301 412.165 46.4421 412.816C46.9648 413.467 47.2261 414.523 47.2261 415.984C47.2261 417.445 46.9808 418.507 46.4901 419.168C45.9995 419.829 45.1035 420.16 43.8021 420.16C42.5008 420.16 41.6048 419.829 41.1141 419.168C40.6235 418.507 40.3781 417.445 40.3781 415.984ZM41.6101 415.968C41.6101 417.131 41.7488 417.947 42.0261 418.416C42.3141 418.885 42.9061 419.12 43.8021 419.12C44.7088 419.12 45.3008 418.891 45.5781 418.432C45.8555 417.963 45.9941 417.141 45.9941 415.968C45.9941 414.795 45.8395 413.989 45.5301 413.552C45.2208 413.104 44.6448 412.88 43.8021 412.88C42.9701 412.88 42.3941 413.104 42.0741 413.552C41.7648 413.989 41.6101 414.795 41.6101 415.968ZM48.4491 412H49.6491L51.2651 418.96H51.5211L53.4251 412.16H54.6731L56.5771 418.96H56.8491L58.4491 412H59.6491L57.7451 420H55.7451L54.0491 413.744L52.3531 420H50.3531L48.4491 412Z" fill="#1E1E1E"/>
<rect x="101" y="398" width="120" height="32" rx="12" fill="#FFD52B"/>
<path d="M134.36 420V408.928H136.584L139.72 418.288L142.856 408.928H145.08V420H143.848V410.24H143.624L140.408 419.6H139.032L135.816 410.24H135.592V420H134.36ZM152.951 419.008L153.415 418.96L153.447 419.904C152.231 420.075 151.191 420.16 150.327 420.16C149.175 420.16 148.359 419.829 147.879 419.168C147.399 418.496 147.159 417.456 147.159 416.048C147.159 413.243 148.274 411.84 150.503 411.84C151.581 411.84 152.386 412.144 152.919 412.752C153.453 413.349 153.719 414.293 153.719 415.584L153.655 416.496H148.375C148.375 417.381 148.535 418.037 148.855 418.464C149.175 418.891 149.73 419.104 150.519 419.104C151.319 419.104 152.13 419.072 152.951 419.008ZM152.519 415.536C152.519 414.555 152.359 413.861 152.039 413.456C151.73 413.051 151.218 412.848 150.503 412.848C149.799 412.848 149.266 413.061 148.903 413.488C148.551 413.915 148.37 414.597 148.359 415.536H152.519ZM161.734 408.512V420H160.55V419.456C159.728 419.925 158.918 420.16 158.118 420.16C157.691 420.16 157.318 420.107 156.998 420C156.678 419.893 156.379 419.701 156.102 419.424C155.526 418.848 155.238 417.787 155.238 416.24C155.238 414.683 155.494 413.563 156.006 412.88C156.528 412.187 157.387 411.84 158.582 411.84C159.2 411.84 159.856 411.909 160.55 412.048V408.512H161.734ZM157.03 418.56C157.2 418.763 157.382 418.901 157.574 418.976C157.766 419.051 158.011 419.088 158.31 419.088C158.619 419.088 158.96 419.04 159.334 418.944C159.718 418.837 160.016 418.736 160.23 418.64L160.55 418.496V413.072C159.867 412.944 159.232 412.88 158.646 412.88C157.835 412.88 157.27 413.141 156.95 413.664C156.63 414.176 156.47 414.976 156.47 416.064C156.47 417.301 156.656 418.133 157.03 418.56ZM164.058 420V412H165.258V420H164.058ZM164.058 410.192V408.8H165.258V410.192H164.058ZM172.55 412H173.75V420H172.55V419.44C171.75 419.92 170.961 420.16 170.182 420.16C169.094 420.16 168.369 419.877 168.006 419.312C167.654 418.747 167.478 417.701 167.478 416.176V412H168.678V416.16C168.678 417.323 168.78 418.101 168.982 418.496C169.185 418.891 169.644 419.088 170.358 419.088C170.71 419.088 171.068 419.04 171.43 418.944C171.793 418.837 172.07 418.736 172.262 418.64L172.55 418.496V412ZM177.258 420H176.058V412H177.242V412.56C178.042 412.08 178.821 411.84 179.578 411.84C180.57 411.84 181.264 412.112 181.658 412.656C182.01 412.443 182.464 412.256 183.018 412.096C183.584 411.925 184.08 411.84 184.506 411.84C185.573 411.84 186.288 412.128 186.65 412.704C187.024 413.269 187.21 414.293 187.21 415.776V420H186.01V415.808C186.01 414.699 185.904 413.941 185.69 413.536C185.477 413.12 185.024 412.912 184.33 412.912C183.978 412.912 183.616 412.965 183.242 413.072C182.869 413.168 182.581 413.264 182.378 413.36L182.074 413.504C182.213 413.856 182.282 414.635 182.282 415.84V420H181.082V415.872C181.082 414.72 180.976 413.941 180.762 413.536C180.56 413.12 180.106 412.912 179.402 412.912C179.061 412.912 178.709 412.965 178.346 413.072C177.994 413.168 177.722 413.264 177.53 413.36L177.258 413.504V420Z" fill="#1E1E1E"/>
<rect x="229.125" y="398.125" width="95.75" height="31.75" rx="11.875" fill="#FFCDC7"/>
<rect x="229.125" y="398.125" width="95.75" height="31.75" rx="11.875" stroke="#E85342" stroke-width="0.25"/>
<path d="M269.224 420V414.992H263.592V420H262.36V408.928H263.592V413.888H269.224V408.928H270.44V420H269.224ZM272.949 420V412H274.149V420H272.949ZM272.949 410.192V408.8H274.149V410.192H272.949ZM279.537 423.76C278.257 423.76 277.361 423.584 276.849 423.232C276.348 422.891 276.097 422.261 276.097 421.344C276.097 420.907 276.193 420.549 276.385 420.272C276.577 420.005 276.902 419.701 277.361 419.36C277.062 419.157 276.913 418.789 276.913 418.256C276.913 418.075 277.046 417.739 277.313 417.248L277.457 416.992C276.614 416.608 276.193 415.803 276.193 414.576C276.193 412.752 277.19 411.84 279.185 411.84C279.697 411.84 280.172 411.893 280.609 412L280.849 412.048L283.217 411.984V413.008L281.697 412.976C282.049 413.328 282.225 413.861 282.225 414.576C282.225 415.579 281.974 416.283 281.473 416.688C280.982 417.083 280.204 417.28 279.137 417.28C278.849 417.28 278.588 417.259 278.353 417.216C278.161 417.685 278.065 417.989 278.065 418.128C278.065 418.459 278.166 418.667 278.369 418.752C278.572 418.827 279.185 418.864 280.209 418.864C281.233 418.864 281.969 419.024 282.417 419.344C282.865 419.664 283.089 420.288 283.089 421.216C283.089 422.912 281.905 423.76 279.537 423.76ZM277.281 421.248C277.281 421.813 277.436 422.203 277.745 422.416C278.065 422.64 278.646 422.752 279.489 422.752C280.342 422.752 280.95 422.635 281.313 422.4C281.686 422.165 281.873 421.771 281.873 421.216C281.873 420.672 281.74 420.32 281.473 420.16C281.206 420 280.684 419.92 279.905 419.92L278.177 419.84C277.825 420.096 277.585 420.32 277.457 420.512C277.34 420.704 277.281 420.949 277.281 421.248ZM277.393 414.576C277.393 415.205 277.532 415.653 277.809 415.92C278.097 416.187 278.566 416.32 279.217 416.32C279.868 416.32 280.332 416.187 280.609 415.92C280.886 415.653 281.025 415.205 281.025 414.576C281.025 413.936 280.886 413.483 280.609 413.216C280.332 412.949 279.868 412.816 279.217 412.816C278.566 412.816 278.097 412.955 277.809 413.232C277.532 413.499 277.393 413.947 277.393 414.576ZM285.868 420H284.668V408.512H285.868V412.448C286.721 412.043 287.542 411.84 288.332 411.84C289.398 411.84 290.113 412.128 290.476 412.704C290.849 413.28 291.036 414.304 291.036 415.776V420H289.836V415.808C289.836 414.699 289.724 413.941 289.5 413.536C289.286 413.12 288.828 412.912 288.124 412.912C287.452 412.912 286.801 413.035 286.172 413.28L285.868 413.392V420Z" fill="#1E1E1E"/>
<mask id="mask0_434_7323" style="mask-type:alpha" maskUnits="userSpaceOnUse" x="22" y="0" width="290" height="398">
<path d="M22 0L311.528 111.67L112.223 397.5H49.3628L22 0Z" fill="#D9D9D9"/>
</mask>
<g mask="url(#mask0_434_7323)">
<path d="M66.3721 159.74C138.281 159.74 207.26 187.811 258.199 237.807C309.139 287.802 337.888 355.646 338.149 426.478C338.411 497.311 310.163 565.358 259.594 615.717C209.024 666.076 140.255 694.641 68.3473 695.156C-3.56003 695.671 -72.7437 668.093 -124.051 618.464C-175.358 568.834 -204.607 501.198 -205.391 430.37C-206.175 359.541 -178.43 291.293 -128.233 240.573C-78.0366 189.854 -9.47974 160.797 62.4219 159.768L64.792 320.378C36.0314 320.79 8.60863 332.412 -11.4701 352.7C-31.5487 372.988 -42.6466 400.287 -42.3331 428.619C-42.0195 456.95 -30.3201 484.004 -9.79713 503.856C10.7258 523.708 38.3992 534.739 67.1622 534.533C95.9251 534.327 123.433 522.901 143.661 502.758C163.889 482.614 175.188 455.395 175.083 427.062C174.978 398.729 163.479 371.592 143.103 351.593C122.727 331.595 95.1358 320.367 66.3721 320.367V159.74Z" fill="#60D773"/>
<path d="M63.9655 105.263C70.7697 105.261 77.5739 105.266 84.3778 105.277L75.5739 356.215C72.0895 356.209 68.6051 356.207 65.1205 356.207L63.9655 105.263Z" fill="#E85342"/>
<path d="M26.2668 55.7911C38.7632 55.7428 51.261 55.717 63.759 55.7139L65.1729 382.094C59.5396 382.095 53.9062 382.107 48.2737 382.128L26.2668 55.7911Z" fill="#FFD52B"/>
</g>
<path d="M347.744 115.876C347.744 153.049 317.609 183.184 280.436 183.184C243.263 183.184 213.128 153.049 213.128 115.876C213.128 78.7027 243.263 48.5678 280.436 48.5678C317.609 48.5678 347.744 78.7027 347.744 115.876ZM253.513 115.876C253.513 130.745 265.567 142.799 280.436 142.799C295.305 142.799 307.359 130.745 307.359 115.876C307.359 101.007 295.305 88.9527 280.436 88.9527C265.567 88.9527 253.513 101.007 253.513 115.876Z" fill="#08711A"/>
<path d="M340.57 109.546C340.57 146.719 310.435 176.854 273.262 176.854C236.089 176.854 205.954 146.719 205.954 109.546C205.954 72.3728 236.089 42.2379 273.262 42.2379C310.435 42.2379 340.57 72.3728 340.57 109.546ZM246.339 109.546C246.339 124.415 258.393 136.469 273.262 136.469C288.131 136.469 300.185 124.415 300.185 109.546C300.185 94.6767 288.131 82.6228 273.262 82.6228C258.393 82.6228 246.339 94.6767 246.339 109.546Z" fill="#CAFFD3"/>
<path d="M276.216 44.3478C294.025 44.3478 311.108 51.4057 323.724 63.9755C336.339 76.5454 343.459 93.6027 343.524 111.411C343.588 129.22 336.593 146.329 324.069 158.99C311.545 171.651 294.514 178.833 276.705 178.962C258.897 179.092 241.763 172.158 229.056 159.68C216.35 147.203 209.106 130.198 208.912 112.39C208.718 94.5819 215.589 77.423 228.02 64.6711C240.452 51.9192 257.431 44.6138 275.238 44.3549L275.825 84.7356C268.702 84.8391 261.91 87.7613 256.938 92.862C251.965 97.9628 249.217 104.826 249.294 111.95C249.372 119.073 252.269 125.875 257.352 130.866C262.435 135.857 269.288 138.63 276.412 138.579C283.535 138.527 290.348 135.654 295.357 130.59C300.367 125.525 303.165 118.682 303.139 111.558C303.113 104.435 300.265 97.6118 295.219 92.5838C290.173 87.5559 283.34 84.7327 276.216 84.7327V44.3478Z" fill="#60D773"/>
<path d="M276.146 36.752C276.347 36.7518 276.548 36.7524 276.749 36.7539L276.387 84.7512C276.322 84.7507 276.258 84.7505 276.194 84.7506L276.146 36.752Z" fill="#E85342"/>
<path d="M275.034 30.0107C275.402 30.004 275.771 30.0005 276.14 30L276.191 84.7547C276.07 84.7548 275.948 84.756 275.827 84.7582L275.034 30.0107Z" fill="#FFD52B"/>
<path d="M117.906 127.606C118.671 127.606 119.292 127.751 119.768 128.04C120.776 128.637 121.28 130.131 121.28 132.52C121.28 134.209 121 135.404 120.44 136.104C119.88 136.795 119.04 137.14 117.92 137.14C116.8 137.14 115.955 136.799 115.386 136.118C114.826 135.427 114.546 134.205 114.546 132.45C114.546 130.686 114.821 129.44 115.372 128.712C115.932 127.975 116.777 127.606 117.906 127.606ZM117.92 128.572C117.388 128.572 116.968 128.684 116.66 128.908C115.997 129.365 115.666 130.574 115.666 132.534C115.666 133.915 115.848 134.872 116.212 135.404C116.576 135.927 117.145 136.188 117.92 136.188C118.695 136.188 119.264 135.922 119.628 135.39C119.992 134.858 120.174 133.873 120.174 132.436C120.174 130.989 119.997 129.986 119.642 129.426C119.297 128.857 118.723 128.572 117.92 128.572ZM122.772 137V135.404H123.92V137H122.772ZM128.761 127.606C129.527 127.606 130.147 127.751 130.623 128.04C131.631 128.637 132.135 130.131 132.135 132.52C132.135 134.209 131.855 135.404 131.295 136.104C130.735 136.795 129.895 137.14 128.775 137.14C127.655 137.14 126.811 136.799 126.241 136.118C125.681 135.427 125.401 134.205 125.401 132.45C125.401 130.686 125.677 129.44 126.227 128.712C126.787 127.975 127.632 127.606 128.761 127.606ZM128.775 128.572C128.243 128.572 127.823 128.684 127.515 128.908C126.853 129.365 126.521 130.574 126.521 132.534C126.521 133.915 126.703 134.872 127.067 135.404C127.431 135.927 128.001 136.188 128.775 136.188C129.55 136.188 130.119 135.922 130.483 135.39C130.847 134.858 131.029 133.873 131.029 132.436C131.029 130.989 130.852 129.986 130.497 129.426C130.152 128.857 129.578 128.572 128.775 128.572ZM133.697 127.998C134.575 127.737 135.513 127.606 136.511 127.606C137.519 127.606 138.247 127.797 138.695 128.18C139.143 128.563 139.367 129.174 139.367 130.014C139.367 130.443 139.307 130.756 139.185 130.952C139.073 131.139 138.98 131.283 138.905 131.386C138.84 131.489 138.751 131.587 138.639 131.68C138.434 131.839 138.271 131.951 138.149 132.016L137.995 132.114C138.537 132.31 138.938 132.562 139.199 132.87C139.461 133.169 139.591 133.663 139.591 134.354C139.591 135.297 139.349 135.997 138.863 136.454C138.387 136.911 137.631 137.14 136.595 137.14C135.774 137.14 134.906 137.047 133.991 136.86L133.557 136.762L133.655 135.88C134.663 136.085 135.606 136.188 136.483 136.188C137.818 136.179 138.485 135.581 138.485 134.396C138.485 133.285 137.851 132.707 136.581 132.66H134.719V131.736H136.581C136.973 131.736 137.351 131.582 137.715 131.274C138.079 130.957 138.261 130.541 138.261 130.028C138.261 129.515 138.117 129.146 137.827 128.922C137.538 128.689 137.053 128.572 136.371 128.572C135.625 128.572 134.887 128.642 134.159 128.782L133.795 128.852L133.697 127.998ZM142.693 137.056L145.563 127.466L146.235 127.69L143.365 137.252L142.693 137.056ZM140.915 129.552C140.915 128.264 141.429 127.62 142.455 127.62C143.482 127.62 143.995 128.264 143.995 129.552C143.995 130.215 143.86 130.709 143.589 131.036C143.319 131.363 142.941 131.526 142.455 131.526C141.97 131.526 141.592 131.363 141.321 131.036C141.051 130.709 140.915 130.215 140.915 129.552ZM141.769 129.552C141.769 130.392 141.998 130.812 142.455 130.812C142.922 130.812 143.155 130.392 143.155 129.552C143.155 129.132 143.099 128.824 142.987 128.628C142.885 128.432 142.707 128.334 142.455 128.334C142.213 128.334 142.035 128.432 141.923 128.628C141.821 128.824 141.769 129.132 141.769 129.552ZM144.905 135.152C144.905 133.873 145.414 133.234 146.431 133.234C147.458 133.234 147.971 133.878 147.971 135.166C147.971 135.819 147.836 136.314 147.565 136.65C147.295 136.977 146.917 137.14 146.431 137.14C145.946 137.14 145.568 136.977 145.297 136.65C145.036 136.314 144.905 135.815 144.905 135.152ZM145.745 135.152C145.745 136.001 145.974 136.426 146.431 136.426C146.693 136.426 146.875 136.323 146.977 136.118C147.08 135.913 147.131 135.595 147.131 135.166C147.131 134.737 147.08 134.429 146.977 134.242C146.875 134.046 146.697 133.948 146.445 133.948C146.193 133.948 146.011 134.046 145.899 134.242C145.797 134.429 145.745 134.732 145.745 135.152Z" fill="black"/>
<path d="M224.458 296.188C226.147 296.188 226.997 295.115 227.006 292.968C226.073 293.323 225.27 293.5 224.598 293.5C222.582 293.5 221.574 292.562 221.574 290.686C221.574 289.743 221.863 288.997 222.442 288.446C223.021 287.895 223.8 287.62 224.78 287.62C225.909 287.62 226.749 288.04 227.3 288.88C227.851 289.711 228.126 290.938 228.126 292.562C228.126 294.177 227.813 295.343 227.188 296.062C226.572 296.781 225.662 297.14 224.458 297.14C223.758 297.14 223.035 297.075 222.288 296.944L221.924 296.888L222.022 296.02C222.862 296.132 223.674 296.188 224.458 296.188ZM224.682 292.548C225.251 292.548 225.909 292.422 226.656 292.17L227.02 292.044C226.992 289.729 226.245 288.572 224.78 288.572C224.127 288.572 223.613 288.763 223.24 289.146C222.876 289.519 222.694 290.033 222.694 290.686C222.694 291.927 223.357 292.548 224.682 292.548ZM232.292 296.188C233.981 296.188 234.831 295.115 234.84 292.968C233.907 293.323 233.104 293.5 232.432 293.5C230.416 293.5 229.408 292.562 229.408 290.686C229.408 289.743 229.697 288.997 230.276 288.446C230.855 287.895 231.634 287.62 232.614 287.62C233.743 287.62 234.583 288.04 235.134 288.88C235.685 289.711 235.96 290.938 235.96 292.562C235.96 294.177 235.647 295.343 235.022 296.062C234.406 296.781 233.496 297.14 232.292 297.14C231.592 297.14 230.869 297.075 230.122 296.944L229.758 296.888L229.856 296.02C230.696 296.132 231.508 296.188 232.292 296.188ZM232.516 292.548C233.085 292.548 233.743 292.422 234.49 292.17L234.854 292.044C234.826 289.729 234.079 288.572 232.614 288.572C231.961 288.572 231.447 288.763 231.074 289.146C230.71 289.519 230.528 290.033 230.528 290.686C230.528 291.927 231.191 292.548 232.516 292.548ZM237.606 297V295.404H238.754V297H237.606ZM241.159 288.222C241.747 287.811 242.555 287.606 243.581 287.606C244.608 287.606 245.42 287.811 246.017 288.222C246.624 288.623 246.927 289.221 246.927 290.014C246.927 290.593 246.811 291.036 246.577 291.344C246.344 291.643 245.947 291.918 245.387 292.17C245.947 292.422 246.367 292.721 246.647 293.066C246.927 293.402 247.067 293.878 247.067 294.494C247.067 296.258 245.91 297.14 243.595 297.14C241.29 297.14 240.137 296.309 240.137 294.648C240.137 293.985 240.263 293.481 240.515 293.136C240.777 292.791 241.183 292.469 241.733 292.17C241.229 291.918 240.861 291.633 240.627 291.316C240.403 290.989 240.291 290.551 240.291 290C240.291 289.216 240.581 288.623 241.159 288.222ZM241.285 294.466C241.285 295.595 242.055 296.16 243.595 296.16C245.145 296.16 245.919 295.567 245.919 294.382C245.919 293.887 245.779 293.523 245.499 293.29C245.229 293.047 244.823 292.847 244.281 292.688H242.811C242.298 292.828 241.915 293.038 241.663 293.318C241.411 293.589 241.285 293.971 241.285 294.466ZM245.779 290.14C245.779 289.104 245.056 288.586 243.609 288.586C242.163 288.586 241.439 289.099 241.439 290.126C241.439 290.537 241.551 290.868 241.775 291.12C241.999 291.372 242.345 291.582 242.811 291.75H244.281C244.785 291.591 245.159 291.386 245.401 291.134C245.653 290.882 245.779 290.551 245.779 290.14ZM254.397 297H248.489V296.09L251.191 293.248C251.658 292.763 251.999 292.394 252.213 292.142C252.428 291.89 252.619 291.591 252.787 291.246C252.965 290.901 253.053 290.555 253.053 290.21C253.053 289.613 252.89 289.193 252.563 288.95C252.237 288.707 251.728 288.586 251.037 288.586C250.431 288.586 249.754 288.665 249.007 288.824L248.643 288.894L248.559 287.998C249.446 287.746 250.361 287.62 251.303 287.62C252.246 287.62 252.955 287.821 253.431 288.222C253.917 288.614 254.159 289.239 254.159 290.098C254.159 290.751 254.015 291.321 253.725 291.806C253.436 292.291 252.937 292.875 252.227 293.556L249.763 296.062H254.397V297ZM257.527 297.056L260.397 287.466L261.069 287.69L258.199 297.252L257.527 297.056ZM255.749 289.552C255.749 288.264 256.263 287.62 257.289 287.62C258.316 287.62 258.829 288.264 258.829 289.552C258.829 290.215 258.694 290.709 258.423 291.036C258.153 291.363 257.775 291.526 257.289 291.526C256.804 291.526 256.426 291.363 256.155 291.036C255.885 290.709 255.749 290.215 255.749 289.552ZM256.603 289.552C256.603 290.392 256.832 290.812 257.289 290.812C257.756 290.812 257.989 290.392 257.989 289.552C257.989 289.132 257.933 288.824 257.821 288.628C257.719 288.432 257.541 288.334 257.289 288.334C257.047 288.334 256.869 288.432 256.757 288.628C256.655 288.824 256.603 289.132 256.603 289.552ZM259.739 295.152C259.739 293.873 260.248 293.234 261.265 293.234C262.292 293.234 262.805 293.878 262.805 295.166C262.805 295.819 262.67 296.314 262.399 296.65C262.129 296.977 261.751 297.14 261.265 297.14C260.78 297.14 260.402 296.977 260.131 296.65C259.87 296.314 259.739 295.815 259.739 295.152ZM260.579 295.152C260.579 296.001 260.808 296.426 261.265 296.426C261.527 296.426 261.709 296.323 261.811 296.118C261.914 295.913 261.965 295.595 261.965 295.166C261.965 294.737 261.914 294.429 261.811 294.242C261.709 294.046 261.531 293.948 261.279 293.948C261.027 293.948 260.845 294.046 260.733 294.242C260.631 294.429 260.579 294.732 260.579 295.152Z" fill="black"/>
<path d="M99.906 73.606C100.671 73.606 101.292 73.7507 101.768 74.04C102.776 74.6373 103.28 76.1307 103.28 78.52C103.28 80.2093 103 81.404 102.44 82.104C101.88 82.7947 101.04 83.14 99.92 83.14C98.8 83.14 97.9553 82.7993 97.386 82.118C96.826 81.4273 96.546 80.2047 96.546 78.45C96.546 76.686 96.8213 75.44 97.372 74.712C97.932 73.9747 98.7767 73.606 99.906 73.606ZM99.92 74.572C99.388 74.572 98.968 74.684 98.66 74.908C97.9973 75.3653 97.666 76.574 97.666 78.534C97.666 79.9153 97.848 80.872 98.212 81.404C98.576 81.9267 99.1453 82.188 99.92 82.188C100.695 82.188 101.264 81.922 101.628 81.39C101.992 80.858 102.174 79.8733 102.174 78.436C102.174 76.9893 101.997 75.986 101.642 75.426C101.297 74.8567 100.723 74.572 99.92 74.572ZM104.772 83V81.404H105.92V83H104.772ZM112.301 73.76V83H111.223V74.964L108.843 76.532L108.353 75.72L111.293 73.76H112.301ZM121.367 73.76V74.74H116.873L116.621 77.75C117.34 77.3673 118.063 77.176 118.791 77.176C120.751 77.176 121.731 78.086 121.731 79.906C121.731 80.9513 121.461 81.7493 120.919 82.3C120.378 82.8507 119.617 83.126 118.637 83.126C117.853 83.126 116.985 83.0233 116.033 82.818L115.571 82.72L115.697 81.866C116.771 82.0713 117.671 82.174 118.399 82.174C119.137 82.174 119.692 81.9873 120.065 81.614C120.439 81.2313 120.625 80.6993 120.625 80.018C120.625 79.3367 120.453 78.856 120.107 78.576C119.771 78.2867 119.291 78.142 118.665 78.142C118.329 78.142 117.975 78.1887 117.601 78.282C117.237 78.3753 116.957 78.4687 116.761 78.562L116.467 78.702L115.725 78.562L115.977 73.76H121.367ZM124.693 83.056L127.563 73.466L128.235 73.69L125.365 83.252L124.693 83.056ZM122.915 75.552C122.915 74.264 123.429 73.62 124.455 73.62C125.482 73.62 125.995 74.264 125.995 75.552C125.995 76.2147 125.86 76.7093 125.589 77.036C125.319 77.3627 124.941 77.526 124.455 77.526C123.97 77.526 123.592 77.3627 123.321 77.036C123.051 76.7093 122.915 76.2147 122.915 75.552ZM123.769 75.552C123.769 76.392 123.998 76.812 124.455 76.812C124.922 76.812 125.155 76.392 125.155 75.552C125.155 75.132 125.099 74.824 124.987 74.628C124.885 74.432 124.707 74.334 124.455 74.334C124.213 74.334 124.035 74.432 123.923 74.628C123.821 74.824 123.769 75.132 123.769 75.552ZM126.905 81.152C126.905 79.8733 127.414 79.234 128.431 79.234C129.458 79.234 129.971 79.878 129.971 81.166C129.971 81.8193 129.836 82.314 129.565 82.65C129.295 82.9767 128.917 83.14 128.431 83.14C127.946 83.14 127.568 82.9767 127.297 82.65C127.036 82.314 126.905 81.8147 126.905 81.152ZM127.745 81.152C127.745 82.0013 127.974 82.426 128.431 82.426C128.693 82.426 128.875 82.3233 128.977 82.118C129.08 81.9127 129.131 81.5953 129.131 81.166C129.131 80.7367 129.08 80.4287 128.977 80.242C128.875 80.046 128.697 79.948 128.445 79.948C128.193 79.948 128.011 80.046 127.899 80.242C127.797 80.4287 127.745 80.732 127.745 81.152Z" fill="black"/>
<line x1="70" y1="77.5" x2="93" y2="77.5" stroke="#CC7700"/>
<line x1="87" y1="131.5" x2="110" y2="131.5" stroke="#BE1B0D"/>
<line x1="192" y1="293.5" x2="215" y2="293.5" stroke="#31A845"/>
</svg>
