<svg width="18" height="18" viewBox="0 0 18 18" fill="none" xmlns="http://www.w3.org/2000/svg">
<g clip-path="url(#clip0_403_301)">
<path d="M14.4 6.74999C14.4525 6.74999 14.5125 6.73499 14.565 6.71249C14.7525 6.62249 14.8275 6.39749 14.7375 6.20999C13.6575 3.99749 11.46 2.61749 9 2.61749C8.79 2.61749 8.625 2.78249 8.625 2.99249C8.625 3.20249 8.79 3.36749 9 3.36749C9.24 3.36749 9.48 3.38999 9.7125 3.41999L9.7575 14.565C9.51 14.595 9.2625 14.6175 9 14.6175C8.79 14.6175 8.625 14.7825 8.625 14.9925C8.625 15.2025 8.79 15.3675 9 15.3675C11.46 15.3675 13.6575 13.995 14.7375 11.775C14.8275 11.5875 14.7525 11.3625 14.565 11.2725C14.385 11.1825 14.1525 11.2575 14.0625 11.445C13.4625 12.6825 12.4575 13.62 11.25 14.145L11.2125 3.81749C12.435 4.33499 13.455 5.27999 14.0625 6.53249C14.13 6.66749 14.2575 6.74249 14.4 6.74249V6.74999Z" fill="#65748B"/>
<path d="M16.4175 9C16.4175 7.4475 16.845 5.985 17.595 4.71C15.9375 1.905 12.7125 0 8.99995 0C5.28745 0 2.12245 1.86 0.449951 4.62C1.23745 5.9175 1.68745 7.41 1.68745 9C1.68745 10.59 1.23745 12.0825 0.449951 13.38C2.12245 16.1325 5.32495 18 8.99995 18C12.675 18 15.945 16.095 17.6025 13.29C16.845 12.015 16.4175 10.5525 16.4175 9ZM8.99995 17.22C5.88745 17.22 3.00745 15.75 1.36495 13.3575C2.08495 12.015 2.46745 10.515 2.46745 9C2.46745 7.485 2.08495 5.9925 1.36495 4.6425C3.00745 2.25 5.88745 0.78 8.99995 0.78C12.1125 0.78 15.06 2.28 16.695 4.725C16.005 6.045 15.6375 7.515 15.6375 8.9925C15.6375 10.47 16.005 11.94 16.695 13.26C15.0675 15.705 12.1575 17.205 8.99995 17.205V17.22Z" fill="#65748B"/>
<path d="M8.28757 3.08999C8.28757 2.97749 8.23507 2.87249 8.15257 2.79749C8.07007 2.72249 7.95007 2.69249 7.84507 2.72249C5.44507 3.18749 3.48757 4.98749 2.85757 7.31999C2.80507 7.52249 2.91757 7.72499 3.12007 7.77749C3.32257 7.83749 3.52507 7.71749 3.57757 7.51499C3.65257 7.25249 3.74257 6.99749 3.85507 6.74999H6.81007V14.7075C6.81007 15.12 7.14757 15.4575 7.56007 15.4575C7.97257 15.4575 8.31007 15.12 8.31007 14.7075V3.59249C8.31007 3.59249 8.29507 3.53999 8.29507 3.50999V3.09749L8.28757 3.08999ZM4.25257 5.99999C4.86007 5.04749 5.74507 4.28249 6.80257 3.82499V5.99999H4.25257Z" fill="#65748B"/>
<path d="M12.1951 8.73749C12.0526 8.73749 11.9326 8.84999 11.9326 8.99999C11.9326 9.14999 12.0526 9.26249 12.1951 9.26249H13.1776C13.3201 9.26249 13.4401 9.14999 13.4401 8.99999C13.4401 8.84999 13.3201 8.73749 13.1776 8.73749H12.1951Z" fill="#65748B"/>
<path d="M5.87244 8.73749H4.88994C4.74744 8.73749 4.62744 8.84999 4.62744 8.99999C4.62744 9.14999 4.74744 9.26249 4.88994 9.26249H5.87244C6.01494 9.26249 6.13494 9.14999 6.13494 8.99999C6.13494 8.84999 6.01494 8.73749 5.87244 8.73749Z" fill="#65748B"/>
<path d="M5.88739 13.6875C4.62739 12.855 3.74239 11.52 3.46489 10.035C3.42739 9.83249 3.22489 9.69749 3.02989 9.73499C2.82739 9.77249 2.69239 9.96749 2.72989 10.17C3.04489 11.8575 4.04989 13.365 5.47489 14.31C5.53489 14.355 5.60989 14.37 5.68489 14.37C5.80489 14.37 5.92489 14.31 5.99989 14.205C6.11239 14.0325 6.06739 13.8 5.89489 13.6875H5.88739Z" fill="#65748B"/>
</g>
<defs>
<clipPath id="clip0_403_301">
<rect width="18" height="18" fill="white"/>
</clipPath>
</defs>
</svg>
