<svg width="24" height="24" viewBox="0 0 24 24" fill="none" xmlns="http://www.w3.org/2000/svg">
<path d="M10.27 21C10.82 21.96 12.05 22.28 13 21.73C13.3 21.55 13.56 21.3 13.73 21" stroke="#211C88" stroke-width="2" stroke-linecap="round" stroke-linejoin="round"/>
<path d="M11.68 2.01C8.49998 2.18 5.99998 4.81 5.99998 8C5.99998 12.5 4.58998 13.96 3.25998 15.33C2.88998 15.74 2.91998 16.37 3.31998 16.74C3.49998 16.91 3.73998 17 3.98998 17H19.99C20.54 17 20.99 16.55 20.99 16C20.99 15.75 20.9 15.51 20.73 15.33C19.91 14.48 19.05 13.6 18.52 11.98" stroke="#211C88" stroke-width="2" stroke-linecap="round" stroke-linejoin="round"/>
<path d="M18 8C19.6569 8 21 6.65685 21 5C21 3.34315 19.6569 2 18 2C16.3431 2 15 3.34315 15 5C15 6.65685 16.3431 8 18 8Z" fill="#FFBF00" stroke="#FFDA6C" stroke-width="2" stroke-linecap="round" stroke-linejoin="round"/>
</svg>
