<svg width="24" height="24" viewBox="0 0 24 24" fill="none" xmlns="http://www.w3.org/2000/svg">
<path d="M13.7441 17.736C13.4439 18.7286 12.8915 19.6264 12.1409 20.342C11.3903 21.0575 10.4671 21.5663 9.46129 21.8187C8.45547 22.071 7.40141 22.0584 6.40191 21.7821C5.40241 21.5057 4.49161 20.975 3.75834 20.2417C3.02506 19.5084 2.49436 18.5976 2.21799 17.5981C1.94161 16.5986 1.92901 15.5446 2.1814 14.5388C2.43379 13.5329 2.94256 12.6097 3.65809 11.8591C4.37362 11.1085 5.27147 10.5562 6.26407 10.256" stroke="#FFBF00" stroke-width="2" stroke-linecap="round" stroke-linejoin="round"/>
<path d="M15 6H16V10" stroke="#FFBF00" stroke-width="2" stroke-linecap="round" stroke-linejoin="round"/>
<path d="M6.13379 14.768L6.99979 14.268L8.99979 17.732" stroke="#FFBF00" stroke-width="2" stroke-linecap="round" stroke-linejoin="round"/>
<path d="M16 14C19.3137 14 22 11.3137 22 8C22 4.68629 19.3137 2 16 2C12.6863 2 10 4.68629 10 8C10 11.3137 12.6863 14 16 14Z" stroke="#FFBF00" stroke-width="2" stroke-linecap="round" stroke-linejoin="round"/>
</svg>
