<?xml version="1.0" encoding="UTF-8"?>
<svg id="Layer_1" data-name="Layer 1" xmlns="http://www.w3.org/2000/svg" viewBox="0 0 24 24">
  <defs>
    <style>
      .cls-1 {
        fill: #0e1034;
      }
    </style>
  </defs>
  <path class="cls-1" d="M19.2,9c.07,0,.15-.02.22-.05.25-.12.35-.42.23-.67-1.44-2.95-4.37-4.79-7.65-4.79-.28,0-.5.22-.5.5s.22.5.5.5c.32,0,.64.03.95.07l.06,14.86c-.33.04-.66.07-1.01.07-.28,0-.5.22-.5.5s.22.5.5.5c3.28,0,6.21-1.83,7.65-4.79.12-.25.02-.55-.23-.67-.24-.12-.55-.02-.67.23-.8,1.65-2.14,2.9-3.75,3.6l-.05-13.77c1.63.69,2.99,1.95,3.8,3.62.09.18.26.28.45.28Z"/>
  <path class="cls-1" d="M21.89,12c0-2.07.57-4.02,1.57-5.72h0C21.25,2.54,16.95,0,12,0S2.83,2.48.6,6.16c1.05,1.73,1.65,3.72,1.65,5.84s-.6,4.11-1.65,5.84c2.23,3.67,6.5,6.16,11.4,6.16s9.26-2.54,11.47-6.28h0c-1.01-1.7-1.58-3.65-1.58-5.72ZM12,22.96c-4.15,0-7.99-1.96-10.18-5.15.96-1.79,1.47-3.79,1.47-5.81s-.51-4.01-1.47-5.81C4.01,3,7.85,1.04,12,1.04s8.08,2,10.26,5.26c-.92,1.76-1.41,3.72-1.41,5.69s.49,3.93,1.41,5.69c-2.17,3.26-6.05,5.26-10.26,5.26Z"/>
  <path class="cls-1" d="M11.05,4.12c0-.15-.07-.29-.18-.39s-.27-.14-.41-.1c-3.2.62-5.81,3.02-6.65,6.13-.07.27.08.54.35.61.27.08.54-.08.61-.35.1-.35.22-.69.37-1.02h3.94v10.61c0,.55.45,1,1,1s1-.45,1-1V4.79s-.02-.07-.02-.11v-.55ZM5.67,8c.81-1.27,1.99-2.29,3.4-2.9v2.9h-3.4Z"/>
  <path class="cls-1" d="M16.26,11.65c-.19,0-.35.15-.35.35s.16.35.35.35h1.31c.19,0,.35-.15.35-.35s-.16-.35-.35-.35h-1.31Z"/>
  <path class="cls-1" d="M7.83,11.65h-1.31c-.19,0-.35.15-.35.35s.16.35.35.35h1.31c.19,0,.35-.15.35-.35s-.16-.35-.35-.35Z"/>
  <path class="cls-1" d="M7.85,18.25c-1.68-1.11-2.86-2.89-3.23-4.87-.05-.27-.32-.45-.58-.4-.27.05-.45.31-.4.58.42,2.25,1.76,4.26,3.66,5.52.08.06.18.08.28.08.16,0,.32-.08.42-.22.15-.23.09-.54-.14-.69Z"/>
</svg>