<svg width="129" height="48" viewBox="0 0 129 48" fill="none" xmlns="http://www.w3.org/2000/svg">
<g clip-path="url(#clip0_317_5859)">
<path d="M30.9998 19C31.1165 19 31.2498 18.9667 31.3665 18.9167C31.7832 18.7167 31.9498 18.2167 31.7498 17.8C29.3498 12.8833 24.4665 9.81665 18.9998 9.81665C18.5332 9.81665 18.1665 10.1833 18.1665 10.65C18.1665 11.1167 18.5332 11.4833 18.9998 11.4833C19.5332 11.4833 20.0665 11.5333 20.5832 11.6L20.6832 36.3667C20.1332 36.4333 19.5832 36.4833 19.0165 36.4833C18.5498 36.4833 18.1832 36.85 18.1832 37.3167C18.1832 37.7833 18.5498 38.15 19.0165 38.15C24.4832 38.15 29.3665 35.1 31.7665 30.1667C31.9665 29.75 31.7998 29.25 31.3832 29.05C30.9832 28.85 30.4665 29.0167 30.2665 29.4333C28.9332 32.1833 26.6998 34.2667 24.0165 35.4333L23.9332 12.4833C26.6498 13.6333 28.9165 15.7333 30.2665 18.5167C30.4165 18.8167 30.6998 18.9833 31.0165 18.9833L30.9998 19Z" fill="#FEBF10"/>
<path d="M35.4833 24C35.4833 20.55 36.4333 17.3 38.1 14.4667C34.4167 8.23333 27.25 4 19 4C10.75 4 3.71667 8.13333 0 14.2667C1.75 17.15 2.75 20.4667 2.75 24C2.75 27.5333 1.75 30.85 0 33.7333C3.71667 39.85 10.8333 44 19 44C27.1667 44 34.4333 39.7667 38.1167 33.5333C36.4333 30.7 35.4833 27.45 35.4833 24ZM19 42.2667C12.0833 42.2667 5.68333 39 2.03333 33.6833C3.63333 30.7 4.48333 27.3667 4.48333 24C4.48333 20.6333 3.63333 17.3167 2.03333 14.3167C5.68333 9 12.0833 5.73333 19 5.73333C25.9167 5.73333 32.4667 9.06667 36.1 14.5C34.5667 17.4333 33.75 20.7 33.75 23.9833C33.75 27.2667 34.5667 30.5333 36.1 33.4667C32.4833 38.9 26.0167 42.2333 19 42.2333V42.2667Z" fill="#FEBF10"/>
<path d="M17.4165 10.8667C17.4165 10.6167 17.2998 10.3834 17.1165 10.2167C16.9332 10.05 16.6665 9.98336 16.4332 10.05C11.0998 11.0834 6.74984 15.0834 5.34984 20.2667C5.23317 20.7167 5.48317 21.1667 5.93317 21.2834C6.38317 21.4167 6.83317 21.15 6.94984 20.7C7.11651 20.1167 7.31651 19.55 7.56651 19H14.1332V36.6834C14.1332 37.6 14.8832 38.35 15.7998 38.35C16.7165 38.35 17.4665 37.6 17.4665 36.6834V11.9834C17.4665 11.9834 17.4332 11.8667 17.4332 11.8V10.8834L17.4165 10.8667ZM8.44984 17.3334C9.79984 15.2167 11.7665 13.5167 14.1165 12.5V17.3334H8.44984Z" fill="#FEBF10"/>
<path d="M26.0833 23.4167C25.7667 23.4167 25.5 23.6667 25.5 24C25.5 24.3334 25.7667 24.5834 26.0833 24.5834H28.2667C28.5833 24.5834 28.85 24.3334 28.85 24C28.85 23.6667 28.5833 23.4167 28.2667 23.4167H26.0833Z" fill="#FEBF10"/>
<path d="M12.0499 23.4167H9.86654C9.54987 23.4167 9.2832 23.6667 9.2832 24C9.2832 24.3334 9.54987 24.5834 9.86654 24.5834H12.0499C12.3665 24.5834 12.6332 24.3334 12.6332 24C12.6332 23.6667 12.3665 23.4167 12.0499 23.4167Z" fill="#FEBF10"/>
<path d="M12.0833 34.4167C9.2833 32.5667 7.31664 29.6 6.69997 26.3C6.61664 25.85 6.16664 25.55 5.7333 25.6333C5.2833 25.7167 4.9833 26.15 5.06664 26.6C5.76664 30.35 7.99997 33.7 11.1666 35.8C11.3 35.9 11.4666 35.9333 11.6333 35.9333C11.9 35.9333 12.1666 35.8 12.3333 35.5667C12.5833 35.1834 12.4833 34.6667 12.1 34.4167H12.0833Z" fill="#FEBF10"/>
<path d="M52.5032 37.3488H47.1167L53.0819 10.7814H63.2872L69.2523 37.3488H63.877L62.8198 32.5488H53.5493L52.5032 37.3488ZM59.1249 15.2353H57.2552L54.562 27.8493H61.807L59.1249 15.2353ZM78.1667 37.3488H72.7914V10.7814H78.1667V37.3488ZM100.759 39.7935C100.759 42.0186 99.9017 43.667 98.1878 44.7386C96.474 45.8028 94.1554 46.3349 91.2322 46.3349C88.3164 46.3349 86.072 45.9442 84.4991 45.1628C82.9262 44.3814 82.1398 42.9637 82.1398 40.9098C82.1398 39.2651 83.0746 37.7135 84.9443 36.2549C83.9872 35.6 83.5086 34.6102 83.5086 33.2856C83.5086 32.7647 83.8982 31.9051 84.6772 30.707L85.0222 30.16C83.2564 28.88 82.3735 26.9972 82.3735 24.5116C82.3735 22.026 83.1191 20.2214 84.6104 19.0977C86.1091 17.9814 88.0901 17.4233 90.5533 17.4233C91.6736 17.4233 92.7754 17.5535 93.8586 17.814L94.493 17.9256L100.759 17.7358V21.9107L97.8428 21.6763C98.4141 22.5693 98.6998 23.4549 98.6998 24.333C98.6998 26.9377 98.0357 28.7349 96.7077 29.7247C95.387 30.7144 93.3096 31.2093 90.4754 31.2093C89.8819 31.2093 89.3514 31.1572 88.884 31.053C88.6243 31.7302 88.4944 32.2847 88.4944 32.7163C88.4944 33.1479 88.7133 33.4419 89.1511 33.5981C89.5888 33.7544 90.6275 33.8437 92.2672 33.866C95.5391 33.8958 97.7723 34.3349 98.9669 35.1833C100.161 36.0316 100.759 37.5684 100.759 39.7935ZM87.2814 40.3628C87.2814 41.4791 88.6502 42.0372 91.388 42.0372C94.1257 42.0372 95.4946 41.386 95.4946 40.0837C95.4946 39.3842 95.2646 38.934 94.8046 38.733C94.3298 38.5395 93.343 38.4316 91.8443 38.4093L88.3386 38.1302C87.6338 38.8372 87.2814 39.5814 87.2814 40.3628ZM87.593 24.3554C87.593 26.2679 88.5872 27.2242 90.5756 27.2242C92.5565 27.2242 93.547 26.2679 93.547 24.3554C93.547 22.4428 92.5565 21.4865 90.5756 21.4865C88.5872 21.4865 87.593 22.4428 87.593 24.3554ZM109.128 37.3488H103.919V17.814H109.128V37.3488ZM109.128 15.3135H103.919V10H109.128V15.3135ZM128.025 18.3609L127.947 22.7033C124.727 22.2791 122.475 22.067 121.192 22.067C119.908 22.067 119.077 22.186 118.699 22.4242C118.32 22.6623 118.131 23.0344 118.131 23.5405C118.131 24.0465 118.383 24.3963 118.888 24.5898C119.4 24.7907 120.698 25.0772 122.783 25.4493C124.875 25.8288 126.363 26.4465 127.246 27.3023C128.129 28.1656 128.57 29.5609 128.57 31.4884C128.57 35.7079 125.962 37.8177 120.746 37.8177C119.033 37.8177 116.951 37.5833 114.503 37.1144L113.268 36.88L113.423 32.5042C116.636 32.9209 118.873 33.1293 120.134 33.1293C121.396 33.1293 122.253 33.0065 122.705 32.7609C123.165 32.5079 123.395 32.1358 123.395 31.6447C123.395 31.1535 123.154 30.7888 122.672 30.5507C122.189 30.3126 120.943 30.026 118.932 29.6912C116.922 29.3488 115.423 28.7758 114.436 27.9721C113.449 27.1684 112.956 25.7284 112.956 23.6521C112.956 21.5833 113.657 20.0205 115.059 18.9637C116.462 17.907 118.265 17.3786 120.468 17.3786C121.997 17.3786 124.089 17.6279 126.745 18.1265L128.025 18.3609Z" fill="white"/>
</g>
<defs>
<clipPath id="clip0_317_5859">
<rect width="128.57" height="48" fill="white"/>
</clipPath>
</defs>
</svg>
