<svg width="138" height="48" viewBox="0 0 138 48" fill="none" xmlns="http://www.w3.org/2000/svg">
<path fill-rule="evenodd" clip-rule="evenodd" d="M7.17435 10.3149V18.9596C7.84988 18.7956 8.5133 18.579 9.1584 18.3109C10.7916 17.6324 12.2756 16.6379 13.5256 15.3841C14.7756 14.1303 15.7671 12.6418 16.4436 11.0036C16.8664 9.9798 17.161 8.91005 17.3225 7.81883C13.867 8.15437 10.4483 8.9864 7.17435 10.3149ZM0.8396 6.1373V19.3387V25.6927V25.8913C0.8396 36.9672 9.79124 45.946 20.8337 45.946C31.876 45.946 40.8277 36.9672 40.8277 25.8913V25.6927V19.3387V6.1373L37.8998 4.85896C27.0156 0.106746 14.6516 0.106746 3.76744 4.85896L0.8396 6.1373ZM7.17551 26.0721C7.25703 32.3941 11.6076 37.6836 17.4683 39.1731C17.4655 37.4074 17.1174 35.6593 16.4436 34.0278C15.7671 32.3897 14.7756 30.9012 13.5256 29.6474C12.2756 28.3936 10.7916 27.399 9.1584 26.7205C8.51366 26.4526 7.85065 26.2361 7.17551 26.0721ZM20.6357 28.4212C19.8782 27.2449 18.9968 26.1495 18.0049 25.1545C17.013 24.1595 15.9208 23.2756 14.7481 22.5157C15.9208 21.7559 17.013 20.8719 18.0049 19.877C18.9968 18.882 19.8782 17.7865 20.6357 16.6102C21.3933 17.7865 22.2745 18.882 23.2665 19.877C24.2584 20.8719 25.3505 21.7559 26.5233 22.5157C25.3505 23.2756 24.2584 24.1595 23.2665 25.1545C22.2745 26.1495 21.3933 27.2449 20.6357 28.4212ZM23.803 39.2673C29.8908 37.9137 34.4506 32.4857 34.4927 25.982C33.6804 26.1535 32.8837 26.4003 32.113 26.7205C30.4798 27.399 28.9958 28.3936 27.7458 29.6474C26.4958 30.9012 25.5042 32.3897 24.8278 34.0278C24.1513 35.666 23.803 37.4217 23.803 39.1948V39.2673ZM32.113 18.3109C32.8837 18.6312 33.6805 18.878 34.4929 19.0495V10.3149C31.0923 8.93499 27.5354 8.09072 23.9436 7.78212C24.1038 8.88605 24.4002 9.96833 24.8278 11.0036C25.5042 12.6418 26.4958 14.1303 27.7458 15.3841C28.9958 16.6379 30.4798 17.6324 32.113 18.3109Z" fill="#FFD500"/>
<path d="M60.5753 37.9535H55.1889L61.154 11.386H71.3594L77.3245 37.9535H71.9492L70.8919 33.1535H61.6215L60.5753 37.9535ZM67.1971 15.84H65.3274L62.6342 28.454H69.8792L67.1971 15.84ZM86.2389 37.9535H80.8636V11.386H86.2389V37.9535ZM108.831 40.3981C108.831 42.6233 107.974 44.2716 106.26 45.3433C104.546 46.4074 102.228 46.9395 99.3044 46.9395C96.3885 46.9395 94.1442 46.5488 92.5713 45.7674C90.9984 44.986 90.2119 43.5684 90.2119 41.5144C90.2119 39.8698 91.1468 38.3181 93.0165 36.8595C92.0594 36.2047 91.5808 35.2149 91.5808 33.8902C91.5808 33.3693 91.9703 32.5098 92.7494 31.3116L93.0944 30.7647C91.3286 29.4847 90.4456 27.6019 90.4456 25.1163C90.4456 22.6307 91.1913 20.826 92.6826 19.7023C94.1813 18.586 96.1623 18.0279 98.6255 18.0279C99.7458 18.0279 100.848 18.1581 101.931 18.4186L102.565 18.5302L108.831 18.3405V22.5154L105.915 22.2809C106.486 23.174 106.772 24.0595 106.772 24.9377C106.772 27.5423 106.108 29.3395 104.78 30.3293C103.459 31.3191 101.382 31.814 98.5476 31.814C97.954 31.814 97.4235 31.7619 96.9561 31.6577C96.6965 32.3349 96.5666 32.8893 96.5666 33.3209C96.5666 33.7526 96.7855 34.0465 97.2232 34.2028C97.661 34.3591 98.6997 34.4484 100.339 34.4707C103.611 34.5005 105.845 34.9395 107.039 35.7879C108.234 36.6363 108.831 38.173 108.831 40.3981ZM95.3535 40.9674C95.3535 42.0837 96.7224 42.6419 99.4602 42.6419C102.198 42.6419 103.567 41.9907 103.567 40.6884C103.567 39.9888 103.337 39.5386 102.877 39.3377C102.402 39.1442 101.415 39.0363 99.9165 39.014L96.4108 38.7349C95.706 39.4419 95.3535 40.1861 95.3535 40.9674ZM95.6652 24.96C95.6652 26.8726 96.6594 27.8288 98.6477 27.8288C100.629 27.8288 101.619 26.8726 101.619 24.96C101.619 23.0474 100.629 22.0912 98.6477 22.0912C96.6594 22.0912 95.6652 23.0474 95.6652 24.96ZM117.2 37.9535H111.991V18.4186H117.2V37.9535ZM117.2 15.9181H111.991V10.6047H117.2V15.9181ZM136.097 18.9656L136.019 23.3079C132.799 22.8837 130.547 22.6716 129.264 22.6716C127.98 22.6716 127.149 22.7907 126.771 23.0288C126.392 23.267 126.203 23.6391 126.203 24.1451C126.203 24.6512 126.455 25.0009 126.96 25.1944C127.472 25.3954 128.77 25.6819 130.855 26.054C132.947 26.4335 134.435 27.0512 135.318 27.907C136.201 28.7702 136.642 30.1656 136.642 32.093C136.642 36.3126 134.034 38.4223 128.819 38.4223C127.105 38.4223 125.024 38.1879 122.575 37.7191L121.34 37.4847L121.496 33.1088C124.708 33.5256 126.945 33.734 128.206 33.734C129.468 33.734 130.325 33.6112 130.777 33.3656C131.237 33.1126 131.467 32.7405 131.467 32.2493C131.467 31.7581 131.226 31.3935 130.744 31.1554C130.262 30.9172 129.015 30.6307 127.005 30.2958C124.994 29.9535 123.495 29.3805 122.508 28.5767C121.522 27.773 121.028 26.333 121.028 24.2567C121.028 22.1879 121.729 20.6251 123.132 19.5684C124.534 18.5116 126.337 17.9833 128.54 17.9833C130.069 17.9833 132.161 18.2326 134.817 18.7312L136.097 18.9656Z" fill="white"/>
</svg>
